<?xml version="1.0" encoding="UTF-8"?>
<svg width="140px" height="29px" viewBox="0 0 140 29" version="1.1" xmlns="http://www.w3.org/2000/svg" xmlns:xlink="http://www.w3.org/1999/xlink">
    <g id="Page-1" stroke="none" stroke-width="1" fill="none" fill-rule="evenodd">
        <g id="logo-dark" fill="#060606" fill-rule="nonzero">
            <path d="M65.0552,28.9944762 C67.7730667,28.9944762 69.9421333,27.860254 71.5624,25.5918095 L71.5624,25.5918095 L71.5624,28.7238095 L78.2656,28.7238095 L78.2656,7.14780952 L71.5624,7.14780952 L71.5624,9.97047619 C70.0728,7.93403175 67.9364,6.91580952 65.1532,6.91580952 C62.37,6.91580952 60.0114667,7.95336508 58.0776,10.0284762 C56.1437333,12.1035873 55.1768,14.752254 55.1768,17.9744762 C55.1768,21.1966984 56.1437333,23.8389206 58.0776,25.9011429 C60.0114667,27.9633651 62.3373333,28.9944762 65.0552,28.9944762 Z M66.78,23.2718095 C65.5256,23.2718095 64.4149333,22.814254 63.448,21.8991429 C62.4810667,20.9840317 61.9976,19.6758095 61.9976,17.9744762 C61.9976,16.2731429 62.4810667,14.9584762 63.448,14.0304762 C64.4149333,13.1024762 65.5256,12.6384762 66.78,12.6384762 C68.0344,12.6384762 69.1450667,13.0960317 70.112,14.0111429 C71.0789333,14.926254 71.5624,16.2344762 71.5624,17.9358095 C71.5624,19.6371429 71.0789333,20.9518095 70.112,21.8798095 C69.1450667,22.8078095 68.0344,23.2718095 66.78,23.2718095 Z M90.8488,28.7238095 L90.8488,0.11047619 L84.1456,0.11047619 L84.1456,28.7238095 L90.8488,28.7238095 Z M106.0192,28.9944762 C108.6064,28.9944762 110.8408,28.3306984 112.7224,27.0031429 C114.604,25.6755873 115.8584,23.9291429 116.4856,21.7638095 L116.4856,21.7638095 L109.2336,21.7638095 C108.92,22.1504762 108.6652,22.4275873 108.4692,22.5951429 C108.2732,22.7626984 107.966133,22.930254 107.548,23.0978095 C107.129867,23.2653651 106.496133,23.3491429 105.6468,23.3491429 C104.797467,23.3491429 104.006933,23.046254 103.2752,22.4404762 C102.543467,21.8346984 102.112267,21.0549206 101.9816,20.1011429 L101.9816,20.1011429 L117.0344,20.1011429 C117.138933,19.4566984 117.1912,18.7606984 117.1912,18.0131429 C117.1912,14.5331429 116.1328,11.8135873 114.016,9.85447619 C111.8992,7.89536508 109.2336,6.91580952 106.0192,6.91580952 C102.8048,6.91580952 100.184933,7.90825397 98.1596,9.89314286 C96.1342667,11.8780317 95.1216,14.5460317 95.1216,17.8971429 C95.1216,21.248254 96.1408,23.9355873 98.1792,25.9591429 C100.2176,27.9826984 102.830933,28.9944762 106.0192,28.9944762 Z M110.2136,15.9638095 L102.0208,15.9638095 C102.203733,14.9584762 102.661067,14.1400317 103.3928,13.5084762 C104.124533,12.8769206 105.026133,12.5611429 106.0976,12.5611429 C107.169067,12.5611429 108.0968,12.8769206 108.8808,13.5084762 C109.6648,14.1400317 110.109067,14.9584762 110.2136,15.9638095 L110.2136,15.9638095 Z M125.3448,28.7238095 L128.8728,23.1171429 L132.44,28.7238095 L139.9664,28.7238095 L132.9104,17.5878095 L139.9664,7.14780952 L133.3416,7.14780952 L129.8136,12.7544762 L126.2464,7.14780952 L118.72,7.14780952 L125.8152,18.2838095 L118.72,28.7238095 L125.3448,28.7238095 Z" id="alex"></path>
            <g id="M">
                <polygon id="Path-7" points="0 28.7238095 9.70647629 28.7238095 17.92 10.4906988 13.4679857 0"></polygon>
                <polygon id="Combined-Shape" points="40.32 0 40.029 0.621 40.32 0 53.76 28.7238095 44.0535237 28.7238095 35.503 10.33 26.9276928 28.7238095 22.4 18.3032516 30.6876859 0"></polygon>
            </g>
        </g>
    </g>
</svg>